<?xml version="1.0" encoding="utf-8"?>
<!-- Generator: Adobe Illustrator 24.3.0, SVG Export Plug-In . SVG Version: 6.00 Build 0)  -->
<svg version="1.1" xmlns="http://www.w3.org/2000/svg" xmlns:xlink="http://www.w3.org/1999/xlink" x="0px" y="0px"
	 viewBox="0 0 534.8 217.3" style="enable-background:new 0 0 534.8 217.3;" xml:space="preserve">
<style type="text/css">
	.st0{display:none;}
	.st1{display:inline;fill:#F4932A;}
	.st2{display:inline;fill:#353535;}
	.st3{display:inline;}
	.st4{fill:#353535;}
	.st5{fill-rule:evenodd;clip-rule:evenodd;fill:#4C4A49;}
	.st6{fill-rule:evenodd;clip-rule:evenodd;fill:#DD7A22;}
	.st7{fill:#4C4A49;}
	.st8{fill:#D07819;}
</style>
<g id="Layer_2_1_" class="st0">
	<path class="st1" d="M102.6,10.9c0,0,41.9,39.7,54.5,54.9s27,31.7,26,67.8c-1.4,50.5-51.6,76.5-51.6,76.5s-25.4-12.7-38.3-52
		c-15.9-48.7,11.5-75.8,11.5-75.8s-30.2,14.3-33.9,42.2c-5.1,37.9,10.8,57.7,10.8,57.7s-29.2-20.9-23.8-55.9
		c3.9-25.5,25.6-51.9,36.5-65.3C111.6,39.8,102.6,10.9,102.6,10.9z"/>
	<path class="st2" d="M92.1,2.6c0,0,5.4,18-0.7,28.9c-4.9,8.6-47.6,52-58.1,80.5s-9,48.9,7.2,71.5c19.5,27.1,64.6,33.2,64.6,33.2
		s-38.7,3.6-61.4-12.6C15.6,183.8-5,142.7,6.2,106.2C17.8,68.7,47,48.8,66.5,27.9C82.3,10.9,92.1,2.6,92.1,2.6z"/>
	<g class="st3">
		<path class="st4" d="M125.1,91H170v6.2h-38.1v26.1h35.7v6.2h-35.7v28.6h39.7v6.2H125V91H125.1z"/>
		<path class="st4" d="M186.6,91h6.8v32.4h0.6L229.6,91h9.4l-37.1,33.6l39.2,39.8h-9.9l-37.2-38h-0.6v38h-6.8L186.6,91L186.6,91z"/>
		<path class="st4" d="M245.2,127.8c0-5.6,0.9-10.8,2.8-15.5c1.9-4.7,4.5-8.8,7.8-12.2c3.3-3.4,7.3-6.1,12-8
			c4.7-1.9,9.8-2.9,15.4-2.9s10.7,1,15.4,2.9c4.7,1.9,8.7,4.6,12,8s5.9,7.5,7.8,12.2s2.8,9.9,2.8,15.5c0,5.6-0.9,10.8-2.8,15.5
			s-4.5,8.8-7.8,12.2s-7.3,6.1-12,8s-9.8,2.9-15.4,2.9s-10.7-1-15.4-2.9c-4.7-1.9-8.7-4.6-12-8s-5.9-7.5-7.8-12.2
			C246.1,138.5,245.2,133.4,245.2,127.8z M252,127.8c0,4.6,0.7,8.8,2.2,12.8c1.5,3.9,3.5,7.4,6.2,10.3c2.7,2.9,6,5.2,9.8,6.8
			c3.8,1.7,8.1,2.5,12.9,2.5s9.1-0.8,12.9-2.5s7.1-3.9,9.8-6.8s4.8-6.3,6.2-10.3c1.5-3.9,2.2-8.2,2.2-12.8c0-4.6-0.7-8.8-2.2-12.8
			c-1.5-3.9-3.5-7.4-6.2-10.3s-6-5.2-9.8-6.8s-8.1-2.5-12.9-2.5s-9.1,0.8-12.9,2.5s-7.1,3.9-9.8,6.8c-2.7,2.9-4.8,6.3-6.2,10.3
			S252,123.2,252,127.8z"/>
		<path class="st4" d="M336.5,91h6.8v32.4h0.6L379.5,91h9.4l-37.1,33.6l39.2,39.8h-9.9l-37.2-38h-0.6v38h-6.8V91z"/>
		<path class="st4" d="M422.3,91h7.1l30.9,73.4h-7.7l-8-19.5h-38.9l-8.3,19.5h-7.2L422.3,91z M425.6,98.5l-17.1,40.2h33.7
			L425.6,98.5z"/>
		<path class="st4" d="M470.9,91h8.8l44.7,64.3h0.2V91h6.8v73.4h-8.8l-44.7-64.3h-0.2v64.3h-6.8L470.9,91L470.9,91z"/>
	</g>
	<g class="st3">
		<path class="st4" d="M186.8,184.1h-3.5c-0.3-2.2-1.4-3.3-3.3-3.3c-1.2,0-2.1,0.3-2.8,0.8c-0.6,0.6-0.9,1.4-0.9,2.5
			c0,0.8,0.3,1.6,1,2.3l7.4,7.9c1.4,1.5,2,3,2,4.7v1.6c0,1.8-0.7,3.4-2,4.7c-1.4,1.3-3,2-4.9,2h-3.5c-2.3,0-4-0.5-5.2-1.6
			s-1.8-2.8-1.8-5h3.5c0,0.2,0,0.4,0,0.6c0,0.9,0.4,1.6,1.1,2.1c0.7,0.5,1.5,0.7,2.4,0.7c1.2,0,2.1-0.3,2.7-0.9
			c0.5-0.6,0.8-1.4,0.8-2.5c0-0.8-0.3-1.6-1-2.3l-7.4-7.9c-1.4-1.4-2-3-2-4.7v-1.6c0-1.8,0.7-3.4,2-4.7c1.4-1.3,3-2,4.9-2h3.5
			C184.2,177.4,186.6,179.7,186.8,184.1z"/>
		<path class="st4" d="M193.8,180.7v-3.3h7v3.3H193.8z M193.8,207.2v-23.1h7v23.1H193.8z"/>
		<path class="st4" d="M228.5,197.3h-13.9v3.3c0,0.9,0.3,1.7,1,2.3c0.7,0.7,1.5,1,2.4,1h3.5c2.3,0,3.5-1.1,3.5-3.3h3.5
			c-0.5,4.4-2.8,6.6-6.9,6.6h-7c-1.9,0-3.5-0.6-4.9-1.9c-1.4-1.3-2.1-2.9-2.1-4.7v-9.9c0-1.8,0.7-3.3,2.1-4.6c1.4-1.3,3-1.9,4.9-1.9
			h7c1.9,0,3.5,0.6,4.9,1.9c1.4,1.3,2,2.8,2,4.6V197.3z M214.6,194h7v-3.3c0-0.9-0.3-1.7-1-2.3s-1.5-1-2.5-1c-0.9,0-1.8,0.3-2.4,1
			c-0.7,0.6-1,1.4-1,2.3v3.3H214.6z"/>
		<path class="st4" d="M252.9,190.7h-3.5c-0.3-2.2-1.4-3.3-3.5-3.3c-0.9,0-1.8,0.3-2.4,1c-0.7,0.6-1,1.4-1,2.3v9.9
			c0,0.9,0.3,1.7,1,2.3c0.7,0.7,1.5,1,2.4,1c2.1,0,3.2-1.1,3.5-3.3h3.5c-0.3,4.4-2.6,6.6-7,6.6h-3.5c-1.9,0-3.5-0.6-4.9-1.9
			c-1.4-1.3-2.1-2.9-2.1-4.7v-9.9c0-1.8,0.7-3.3,2.1-4.6c1.4-1.3,3-1.9,4.9-1.9h3.5C250.3,184.1,252.7,186.3,252.9,190.7z"/>
		<path class="st4" d="M259.8,180.7v-3.3h7v3.3H259.8z M259.8,207.2v-23.1h7v23.1H259.8z"/>
		<path class="st4" d="M284.2,180.7v-3.3h7v3.3H284.2z M284.2,207.2v-23.1h7v23.1H284.2z"/>
		<path class="st4" d="M308.5,180.7v-3.3h7v3.3H308.5z M308.5,207.2v-23.1h7v23.1H308.5z"/>
		<path class="st4" d="M322.4,207.2v-23.1h7v3.3c0.1-1.1,0.5-1.9,1.1-2.5c0.6-0.5,1.4-0.8,2.4-0.8h3.5c1.9,0,3.5,0.6,4.9,1.9
			c1.4,1.3,2,2.8,2,4.6v16.6h-6.9v-16.6c0-0.9-0.3-1.7-1-2.3s-1.5-1-2.5-1c-0.9,0-1.8,0.3-2.4,1c-0.7,0.6-1,1.4-1,2.3v16.6H322.4z"
			/>
		<path class="st4" d="M367.7,190.7h-3.5c-0.3-2.2-1.4-3.3-3.3-3.3c-1.2,0-2.1,0.2-2.8,0.7c-0.6,0.5-0.9,1.1-0.9,2
			c0,1,1.7,2.3,5.1,4c2.8,1.4,4.3,2.6,4.8,3.5c0.4,0.9,0.6,1.9,0.6,3c0,1.8-0.7,3.4-2,4.7c-1.4,1.3-3,1.9-4.9,1.9h-3.5
			c-4.6,0-7-2.2-7-6.6h3.5c0.3,2.2,1.4,3.3,3.3,3.3c1.3,0,2.2-0.2,2.8-0.7c0.6-0.5,0.9-1.2,0.9-2.1c0-0.9-1.7-2.2-5.1-4
			c-2.8-1.4-4.3-2.6-4.8-3.5c-0.4-0.9-0.6-1.9-0.6-3c0-1.8,0.7-3.4,2.1-4.7s3-1.9,4.9-1.9h3.5C365.1,184.1,367.4,186.3,367.7,190.7z
			"/>
		<path class="st4" d="M378.1,177.4h6.9v6.6h3.5v3.3H385v13.2c0,1.1,0.4,1.9,1.1,2.5c0.8,0.6,1.4,0.9,2,0.9h0.3v3.3H385
			c-1.9,0-3.5-0.6-4.9-1.9c-1.4-1.3-2-2.9-2-4.7v-13.2h-3.5v-3.3h3.5V177.4z"/>
		<path class="st4" d="M409.4,194v-3.3c0-0.9-0.3-1.7-1-2.3s-1.5-1-2.5-1h-3.5c-2.1,0-3.2,1.1-3.5,3.3h-3.5c0.6-4.4,2.9-6.6,7-6.6h7
			c1.9,0,3.5,0.6,4.9,1.9c1.4,1.3,2,2.8,2,4.6v16.6h-6.9v-3.3c-0.3,2.2-1.4,3.3-3.5,3.3h-3.5c-1.9,0-3.5-0.6-4.9-1.9
			c-1.4-1.3-2.1-2.9-2.1-4.7s0.7-3.3,2.1-4.6s3-1.9,4.9-1.9h7V194z M409.4,197.3h-3.5c-0.9,0-1.8,0.3-2.4,1c-0.7,0.6-1,1.4-1,2.3
			s0.3,1.7,1,2.3c0.7,0.7,1.5,1,2.4,1c1,0,1.8-0.3,2.5-1s1-1.4,1-2.3V197.3z"/>
		<path class="st4" d="M423.3,207.2v-29.8h7v29.8H423.3z"/>
		<path class="st4" d="M451.2,194v-3.3c0-0.9-0.3-1.7-1-2.3s-1.5-1-2.5-1h-3.5c-2.1,0-3.2,1.1-3.5,3.3h-3.5c0.6-4.4,2.9-6.6,7-6.6h7
			c1.9,0,3.5,0.6,4.9,1.9c1.4,1.3,2,2.8,2,4.6v16.6h-6.9v-3.3c-0.3,2.2-1.4,3.3-3.5,3.3h-3.5c-1.9,0-3.5-0.6-4.9-1.9
			c-1.4-1.3-2.1-2.9-2.1-4.7s0.7-3.3,2.1-4.6s3-1.9,4.9-1.9h7V194z M451.2,197.3h-3.5c-0.9,0-1.8,0.3-2.4,1c-0.7,0.6-1,1.4-1,2.3
			s0.3,1.7,1,2.3c0.7,0.7,1.5,1,2.4,1c1,0,1.8-0.3,2.5-1s1-1.4,1-2.3V197.3z"/>
		<path class="st4" d="M482.5,190.7H479c-0.3-2.2-1.4-3.3-3.5-3.3c-0.9,0-1.8,0.3-2.4,1c-0.7,0.6-1,1.4-1,2.3v9.9
			c0,0.9,0.3,1.7,1,2.3c0.7,0.7,1.5,1,2.4,1c2.1,0,3.2-1.1,3.5-3.3h3.5c-0.3,4.4-2.6,6.6-7,6.6H472c-1.9,0-3.5-0.6-4.9-1.9
			c-1.4-1.3-2.1-2.9-2.1-4.7v-9.9c0-1.8,0.7-3.3,2.1-4.6s3-1.9,4.9-1.9h3.5C479.9,184.1,482.2,186.3,482.5,190.7z"/>
		<path class="st4" d="M496.4,184.1h7v23.1c0,1.8-0.7,3.4-2.1,4.7s-3,2-4.9,2h-3.5c-4.1,0-6.4-2.2-7-6.6h3.5
			c0.2,2.2,1.4,3.3,3.5,3.3c0.9,0,1.8-0.3,2.4-1s1-1.4,1-2.3v-23.2H496.4z M496.4,180.7v-3.3h7v3.3H496.4z"/>
		<path class="st4" d="M531.1,197.3h-13.9v3.3c0,0.9,0.3,1.7,1,2.3c0.7,0.7,1.5,1,2.4,1h3.5c2.3,0,3.5-1.1,3.5-3.3h3.5
			c-0.5,4.4-2.8,6.6-6.9,6.6h-7c-1.9,0-3.5-0.6-4.9-1.9c-1.4-1.3-2.1-2.9-2.1-4.7v-9.9c0-1.8,0.7-3.3,2.1-4.6c1.4-1.3,3-1.9,4.9-1.9
			h7c1.9,0,3.5,0.6,4.9,1.9c1.4,1.3,2,2.8,2,4.6V197.3z M517.2,194h7v-3.3c0-0.9-0.3-1.7-1-2.3s-1.5-1-2.5-1c-0.9,0-1.8,0.3-2.4,1
			c-0.7,0.6-1,1.4-1,2.3L517.2,194L517.2,194z"/>
	</g>
</g>
<g id="Layer_3">
	<path class="st5" d="M89,2.7c0,0-12.7,14.6-57.5,57.7C-7.2,97.8-6.9,161.3,36.1,194.2c16.2,12.4,31.3,18.8,51.3,19.6
		c10.7,0.4,14.7,0,14.7,0s-49-1-68.9-46c-20-45,8.6-78.7,8.6-78.7s22.1-26.2,32.4-37.5s15.6-24.8,15.6-24.8S94.3,6.6,89,2.7"/>
	<path class="st6" d="M100.4,10.4c25,30.9,71.7,62.5,76.3,100.6c0,0,4.7,43.9-16.7,68.4c-21.4,24.4-33.2,25.8-33.2,25.8
		c-35-17.2-52-86-32.9-114.1l4.6-8.4C61.9,98.6,58.8,158,80.1,179.4c0,0-17.8-7.2-23.7-33.6C47.2,104.8,84,77.5,99,43.5
		C99,43.5,106.2,28.8,100.4,10.4"/>
	<path class="st7" d="M282.1,127.3c0.4-1.2,0.9-2.5,1.5-3.8c0.6-1.3,1.3-2.6,2.2-3.7c0.9-1.1,2-2,3.2-2.7c1.2-0.7,2.7-1.1,4.3-1.1
		h13.5v11.3H282.1z M261.9,83.1h48.7v11.5h-32.7v58.2h34.5v11.5h-50.5V83.1z M216,165.9c-5,0-9.5-0.7-13.5-2.1
		c-4-1.4-7.4-3.5-10.2-6.3c-2.8-2.8-5-6.2-6.5-10.2c-1.5-4.1-2.3-8.7-2.3-14V83.1h15.6v51.8c0,3.1,0.4,5.8,1.3,8.2
		c0.9,2.4,2,4.4,3.5,6.1c1.5,1.7,3.3,3,5.3,3.9c2,0.9,4.3,1.3,6.7,1.3c2.4,0,4.6-0.4,6.7-1.3c2.1-0.9,3.8-2.2,5.3-3.9
		c1.5-1.7,2.7-3.7,3.5-6.1c0.9-2.4,1.3-5.1,1.3-8.2V83.1h15.6v50.1c0,4.9-0.7,9.4-2.2,13.4c-1.5,4-3.6,7.5-6.4,10.3
		c-2.8,2.9-6.2,5.1-10.2,6.6C225.5,165.1,221,165.9,216,165.9z M172,107c0,3.7-0.7,7.1-2.2,10c-1.5,2.9-3.4,5.5-5.8,7.6
		c-2.4,2.1-5.2,3.8-8.3,5.1c-3.1,1.3-6.3,2-9.7,2.3c-1.7,0.1-3.5,0.2-5.4,0.1c-1.9-0.1-3.8-0.5-5.9-1.1c0.4-1,0.9-2.1,1.5-3.3
		c0.6-1.2,1.2-2.2,2-3.2c0.8-1,1.7-1.8,2.7-2.5c1-0.7,2.1-1.1,3.4-1.2c1.6-0.1,3-0.6,4.4-1.4c1.3-0.8,2.5-1.8,3.5-3
		c1-1.2,1.8-2.7,2.4-4.3c0.6-1.6,0.9-3.4,0.9-5.1c0-1.9-0.4-3.7-1.1-5.4c-0.7-1.7-1.8-3.1-3.2-4.4c-1.4-1.3-3-2.3-4.9-3
		c-1.9-0.7-4-1.1-6.3-1.1c-1,0-1.9,0-2.6,0.1c-0.7,0-1.4,0.1-2.1,0.1c-0.7,0-1.4,0.1-2.1,0.2c-0.7,0.1-1.6,0.2-2.6,0.3v70.6h-16.1
		V84.1c3-0.5,5.6-0.9,7.9-1.3c2.3-0.3,4.4-0.6,6.3-0.8c1.9-0.2,3.7-0.3,5.5-0.4s3.7-0.1,5.7-0.1c4.5,0,8.7,0.6,12.6,1.8
		c3.9,1.2,7.2,2.9,10.1,5.1c2.9,2.2,5.1,4.9,6.8,8C171.2,99.5,172,103.1,172,107z"/>
	<path class="st8" d="M326.6,170.3h15.2v1.8l-10.7,16.6l-0.5,0.5l0.7-0.1h10.7v3.1h-16.4v-1.8l10.7-16.6l0.5-0.5l-0.7,0.1h-9.5
		V170.3z M309.3,187.4l-1.6,4.8h-4.2l7.8-21.8h4.2l7.8,21.8h-4.4l-5.4-16.2l-0.2-1.1L313,176l-2.6,7.8l-0.4,0.6l0.5-0.1h2.3
		c0.4,0,0.8,0.1,1.1,0.3c0.3,0.2,0.6,0.5,0.8,0.8c0.2,0.3,0.4,0.6,0.6,1c0.2,0.4,0.3,0.7,0.4,1H309.3z M294.1,173
		c-1.2,0-2.3,0.2-3.2,0.7c-0.9,0.5-1.7,1.1-2.3,1.8c-0.6,0.8-1.1,1.6-1.4,2.6c-0.3,1-0.5,2-0.5,3.1c0,1,0.2,2.1,0.5,3
		c0.3,1,0.8,1.9,1.4,2.6c0.6,0.8,1.4,1.4,2.3,1.8c0.9,0.5,2,0.7,3.2,0.7c0.4,0,0.9,0,1.3,0c0.4,0,1-0.1,1.6-0.3V182h3.8v9
		c-0.5,0.2-1.1,0.5-1.7,0.6c-0.6,0.2-1.2,0.3-1.8,0.5c-0.6,0.1-1.2,0.2-1.7,0.3c-0.6,0.1-1,0.1-1.5,0.1c-1.9,0-3.5-0.3-5-0.9
		c-1.5-0.6-2.7-1.4-3.7-2.4c-1-1-1.8-2.2-2.3-3.6c-0.5-1.4-0.8-2.8-0.8-4.4c0-1.6,0.3-3.1,0.8-4.4c0.6-1.4,1.4-2.6,2.4-3.6
		s2.3-1.8,3.8-2.4c1.5-0.6,3.1-0.9,5-0.9c0.8,0,1.8,0.1,2.9,0.3c1.1,0.2,2.3,0.5,3.4,1l-1.1,2.9c-1.1-0.4-2.1-0.7-2.9-0.9
		C295.6,173.1,294.8,173,294.1,173z M270.7,192.1h-4.2v-21.8h4.2V192.1z M245.2,192.1v-21.8h4.3v21.8H245.2z M255.7,179.1l7.8,13.1
		h-4.9l-4.9-9.7l-0.2-0.7l-0.4,0.7l-1.9,2.4c-0.2-0.7-0.3-1.3-0.2-2c0-0.7,0.1-1.4,0.3-2.1c0.2-0.7,0.4-1.3,0.6-1.9
		c0.3-0.6,0.6-1.1,0.9-1.6l5-6.9h4.7L255.7,179.1z M234.1,172.9c-0.9,0-1.6,0.2-2.2,0.7c-0.5,0.4-0.8,1-0.8,1.7
		c0,0.7,0.3,1.3,0.8,1.8c0.5,0.5,1.1,1,1.9,1.4c0.8,0.4,1.6,0.9,2.5,1.4c0.9,0.5,1.7,1,2.5,1.6c0.8,0.6,1.4,1.3,1.9,2.1
		c0.5,0.8,0.8,1.8,0.8,3c0,1-0.2,1.8-0.6,2.6c-0.4,0.8-0.9,1.4-1.6,1.9c-0.7,0.5-1.5,0.9-2.4,1.2c-0.9,0.3-2,0.4-3.1,0.4
		c-0.9,0-1.9-0.1-3-0.3c-1.1-0.2-2.4-0.7-3.8-1.3l1.1-2.8c1.1,0.5,2.1,0.9,3,1.1c1,0.2,1.8,0.3,2.6,0.3c0.5,0,1-0.1,1.5-0.2
		c0.5-0.2,0.8-0.4,1.2-0.6c0.3-0.3,0.6-0.6,0.8-0.9c0.2-0.3,0.3-0.7,0.3-1.1c0-0.7-0.3-1.3-0.8-1.9c-0.5-0.5-1.1-1-1.9-1.5
		c-0.8-0.5-1.6-0.9-2.4-1.3c-0.9-0.4-1.7-0.9-2.4-1.5c-0.8-0.6-1.4-1.2-1.9-2c-0.5-0.8-0.8-1.7-0.8-2.8c0-1,0.2-1.8,0.5-2.6
		c0.4-0.7,0.8-1.3,1.4-1.8c0.6-0.5,1.3-0.8,2.1-1c0.8-0.2,1.7-0.3,2.6-0.3c0.5,0,0.9,0,1.3,0c0.4,0,0.9,0.1,1.4,0.2
		c0.5,0.1,1,0.2,1.5,0.3c0.5,0.1,1.1,0.3,1.7,0.5l-1.1,2.7c-0.9-0.3-1.7-0.4-2.4-0.6C235.4,173,234.7,172.9,234.1,172.9z
		 M211.9,170.3h4.3v18.7h7.9v3.1h-12.2V170.3z M197.9,192.6c-1.7,0-3.3-0.3-4.6-0.9c-1.3-0.6-2.5-1.4-3.4-2.4
		c-0.9-1-1.6-2.2-2.1-3.6c-0.5-1.4-0.7-2.9-0.7-4.5c0-1.6,0.2-3,0.7-4.4c0.5-1.4,1.2-2.6,2.1-3.6s2.1-1.8,3.4-2.4
		c1.3-0.6,2.9-0.9,4.6-0.9c2,0,3.6,0.3,5,1c1.4,0.7,2.5,1.6,3.4,2.7c0.9,1.1,1.5,2.3,1.9,3.7c0.4,1.4,0.6,2.7,0.6,4
		c0,1.5-0.2,2.9-0.7,4.3c-0.5,1.4-1.2,2.6-2.1,3.6c-0.9,1.1-2,1.9-3.4,2.5C201.2,192.3,199.7,192.6,197.9,192.6z M197.9,173
		c-1,0-2,0.2-2.7,0.7c-0.8,0.4-1.4,1-2,1.8c-0.5,0.8-0.9,1.6-1.2,2.6c-0.3,1-0.4,2.1-0.4,3.2c0,1,0.1,2.1,0.4,3
		c0.3,1,0.7,1.9,1.2,2.6c0.5,0.8,1.2,1.4,2,1.9c0.8,0.5,1.7,0.7,2.7,0.7c0.8,0,1.6-0.2,2.4-0.6c0.8-0.4,1.4-0.9,2-1.6
		c0.6-0.7,1-1.6,1.4-2.6c0.4-1,0.5-2.2,0.5-3.5c0-1.2-0.1-2.3-0.4-3.3c-0.3-1-0.7-1.9-1.2-2.6c-0.5-0.7-1.2-1.3-2-1.7
		C199.8,173.2,198.9,173,197.9,173z M184.4,176.8c0,1-0.2,1.9-0.6,2.7c-0.4,0.8-0.9,1.5-1.6,2c-0.7,0.6-1.4,1-2.2,1.4
		c-0.8,0.3-1.7,0.6-2.6,0.6c-0.5,0-0.9,0-1.4,0c-0.5,0-1-0.1-1.6-0.3c0.1-0.3,0.3-0.6,0.4-0.9c0.2-0.3,0.3-0.6,0.5-0.9
		c0.2-0.3,0.5-0.5,0.7-0.7c0.3-0.2,0.6-0.3,0.9-0.3c0.4,0,0.8-0.2,1.2-0.4c0.4-0.2,0.7-0.5,0.9-0.8c0.3-0.3,0.5-0.7,0.6-1.2
		c0.2-0.4,0.2-0.9,0.2-1.4c0-0.5-0.1-1-0.3-1.5c-0.2-0.5-0.5-0.8-0.9-1.2c-0.4-0.3-0.8-0.6-1.3-0.8c-0.5-0.2-1.1-0.3-1.7-0.3
		c-0.3,0-0.5,0-0.7,0c-0.2,0-0.4,0-0.6,0c-0.2,0-0.4,0-0.6,0.1c-0.2,0-0.4,0.1-0.7,0.1v19H169v-21.5c0.8-0.1,1.5-0.3,2.1-0.3
		c0.6-0.1,1.2-0.2,1.7-0.2c0.5,0,1-0.1,1.5-0.1c0.5,0,1,0,1.5,0c1.2,0,2.4,0.2,3.4,0.5c1,0.3,1.9,0.8,2.7,1.4
		c0.8,0.6,1.4,1.3,1.8,2.1C184.2,174.7,184.4,175.7,184.4,176.8z"/>
</g>
</svg>
